<?xml version="1.0" encoding="UTF-8"?>
<svg width="17px" height="17px" viewBox="0 0 17 17" version="1.1" xmlns="http://www.w3.org/2000/svg" xmlns:xlink="http://www.w3.org/1999/xlink">
    <!-- Generator: Sketch 55 (78076) - https://sketchapp.com -->
    <title>tail-down</title>
    <desc>Created with Sketch.</desc>
    <g id="Page-1" stroke="none" stroke-width="1" fill="none" fill-rule="evenodd">
        <g id="Desktop" transform="translate(-711.000000, -649.000000)" fill="#4AC6C1">
            <g id="tail-down" transform="translate(711.000000, 649.000000)">
                <path d="M9.66500781,15.9228203 L16.6650078,8.92282031 C17.0554731,8.53235499 17.0554731,7.89928563 16.6650078,7.50882031 L16.6650078,7.50882031 C16.2745425,7.11835499 15.6414731,7.11835499 15.2510078,7.50882031 L9.95800781,12.8018203 L9.95800781,1 C9.95800781,0.447 8.95800781,-5.68365227e-14 8.95800781,4.25200426e-14 C8.95800781,1.41426521e-13 7.95800781,0.447 7.95800781,1 L7.95800781,12.8018203 L2.66500781,7.50882031 C2.27454249,7.11835499 1.64147313,7.11835499 1.25100781,7.50882031 L1.25100781,7.50882031 C0.860542494,7.89928563 0.860542494,8.53235499 1.25100781,8.92282031 L8.25100781,15.9228203 C8.64200781,16.3138203 9.27400781,16.3138203 9.66500781,15.9228203 Z" id="Path"></path>
            </g>
        </g>
    </g>
</svg>