<?xml version="1.0" encoding="UTF-8"?>
<svg width="27px" height="21px" viewBox="0 0 27 21" version="1.1" xmlns="http://www.w3.org/2000/svg" xmlns:xlink="http://www.w3.org/1999/xlink">
    <!-- Generator: Sketch 55 (78076) - https://sketchapp.com -->
    <title>Shape</title>
    <desc>Created with Sketch.</desc>
    <g id="Page-1" stroke="none" stroke-width="1" fill="none" fill-rule="evenodd">
        <g id="Desktop" transform="translate(-347.000000, -455.000000)" fill="#FFFFFF">
            <path d="M373.628,466.38847 L364.292,475.648962 C363.824,476.117013 363.0635,476.117013 362.5955,475.648962 C362.126,475.185413 362.126,474.432332 362.5955,473.967282 L369.9755,466.644998 L348.149,466.644998 C347.5145,466.644998 347,466.130443 347,465.495875 C347,464.861307 347.5145,464.346751 348.149,464.346751 L369.968,464.346751 L362.5955,457.031968 C362.126,456.566918 362.126,455.813837 362.5955,455.348787 C363.0635,454.883738 363.824,454.883738 364.292,455.348787 L373.628,464.61078 C373.751,464.732293 373.838,464.876308 373.8965,465.029325 C373.961,465.17184 374,465.327857 374,465.495875 C374,465.662392 373.961,465.818409 373.898,465.960924 C373.8395,466.115441 373.754,466.262457 373.628,466.38847 Z" id="Shape"></path>
        </g>
    </g>
</svg>