<?xml version="1.0" encoding="UTF-8"?>
<svg width="89px" height="270px" viewBox="0 0 89 270" version="1.1" xmlns="http://www.w3.org/2000/svg" xmlns:xlink="http://www.w3.org/1999/xlink">
    <!-- Generator: Sketch 55 (78076) - https://sketchapp.com -->
    <title>Group 3</title>
    <desc>Created with Sketch.</desc>
    <g id="Page-1" stroke="none" stroke-width="1" fill="none" fill-rule="evenodd" opacity="0.598795573">
        <g id="Desktop" transform="translate(0.000000, -1261.000000)">
            <g id="Group-3" transform="translate(-2.000000, 1259.000000)">
                <path d="M0,57 C2.8603079,77.9142289 -1.49975328,175.947076 3.5113984,201.550013 C14.261127,256.464314 6.97340373,214.37229 11.9890457,250 C15.5677983,249.463619 39.8557189,219.611251 39.8557189,219.611251 L91,233.848463 C54.3278891,170.953185 1.48628244,62.6736146 0,57" id="Fill-42" fill="#AEEBE7"></path>
                <path d="M0,137 C2.01164512,151.629124 -1.05477154,220.201323 2.46955492,238.110113 C10.0298036,276.52167 4.90437185,247.079063 8.43185631,272 C10.9487812,271.624811 28.0303957,250.743621 28.0303957,250.743621 L64,260.702293 C38.2086253,216.708187 1.04529754,140.968591 0,137" id="Fill-42-Copy" fill="#FFC5AB"></path>
                <path d="M1,0 C3.01164512,14.6291238 -0.0547715385,83.2013225 3.46955492,101.110113 C11.0298036,139.52167 5.90437185,110.079063 9.43185631,135 C11.9487812,134.624811 29.0303957,113.743621 29.0303957,113.743621 L65,123.702293 C39.2086253,79.7081866 2.04529754,3.96859053 1,0" id="Fill-42-Copy-2" fill="#FBE7A3"></path>
            </g>
        </g>
    </g>
</svg>