<?xml version="1.0" encoding="UTF-8"?>
<svg width="134px" height="42px" viewBox="0 0 134 42" version="1.1" xmlns="http://www.w3.org/2000/svg" xmlns:xlink="http://www.w3.org/1999/xlink">
    <!-- Generator: Sketch 55 (78076) - https://sketchapp.com -->
    <title>Group 52</title>
    <desc>Created with Sketch.</desc>
    <defs>
        <polygon id="path-1" points="0.269929412 0.157764706 5.83792941 0.157764706 5.83792941 5.71471765 0.269929412 5.71471765"></polygon>
        <polygon id="path-3" points="0.298552941 0.157764706 5.86655294 0.157764706 5.86655294 5.71471765 0.298552941 5.71471765"></polygon>
        <polygon id="path-5" points="0.171352941 0.157764706 5.73935294 0.157764706 5.73935294 5.71471765 0.171352941 5.71471765"></polygon>
        <polygon id="path-7" points="0.0650714286 0.28432623 14.6492857 0.28432623 14.6492857 20.6584574 0.0650714286 20.6584574"></polygon>
        <polygon id="path-9" points="0.232766667 0.159236111 5.70743333 0.159236111 5.70743333 25 0.232766667 25"></polygon>
    </defs>
    <g id="Page-1" stroke="none" stroke-width="1" fill="none" fill-rule="evenodd">
        <g id="iPad" transform="translate(-37.000000, -31.000000)">
            <g id="Group-52" transform="translate(37.000000, 31.000000)">
                <path d="M19.6862076,5.56239199 L20.538549,5.56239199 C20.8263341,5.56239199 21.0292049,5.51510135 21.1475165,5.42084848 C21.2654729,5.3265956 21.3244511,5.19983041 21.3244511,5.04055291 C21.3244511,4.89276966 21.2661835,4.77388624 21.149293,4.68423107 C21.0324025,4.59424749 20.8277553,4.54958411 20.5349961,4.54958411 L19.6862076,4.54958411 L19.6862076,5.56239199 Z M19.6862076,3.59785997 L20.4131315,3.59785997 C20.6739146,3.59785997 20.8554679,3.55648066 20.9574362,3.47339363 C21.0594045,3.3903066 21.1105663,3.27043797 21.1105663,3.11345931 C21.1105663,2.96797491 21.0594045,2.8540176 20.9574362,2.77224421 C20.8554679,2.69047081 20.6774675,2.6494199 20.4241455,2.6494199 L19.6862076,2.6494199 L19.6862076,3.59785997 Z M18,1.63661202 L21.1290414,1.63661202 C21.6506075,1.63661202 22.0506644,1.75582384 22.3299225,1.9945759 C22.609536,2.23332795 22.7488098,2.52922286 22.7488098,2.8812754 C22.7488098,3.17717031 22.6493285,3.43070069 22.4500107,3.64219494 C22.3171321,3.78308164 22.1227883,3.89441169 21.8673346,3.97618509 C22.2556669,4.0628846 22.5416755,4.21132467 22.7250053,4.42150529 C22.9079798,4.63201432 23,4.89605373 23,5.21428033 C23,5.47372204 22.9349819,5.70689117 22.8042351,5.91378772 C22.6738435,6.12068427 22.4954878,6.28423107 22.2695232,6.40475652 C22.1291835,6.47996178 21.9174305,6.53447737 21.6346195,6.56863173 C21.2583671,6.61395192 21.008598,6.63661202 20.8856676,6.63661202 L18,6.63661202 L18,1.63661202 Z" id="Fill-1" fill="#58595B"></path>
                <polygon id="Fill-3" fill="#58595B" points="25 1.63661202 28.9286438 1.63661202 28.9286438 2.7038654 26.4691906 2.7038654 26.4691906 3.49855869 28.7507206 3.49855869 28.7507206 4.51852454 26.4691906 4.51852454 26.4691906 5.50400989 29 5.50400989 29 6.63661202 25 6.63661202"></polygon>
                <polygon id="Fill-5" fill="#58595B" points="34 1.63661202 35.8932689 1.63661202 37.0041654 3.32320075 38.1175973 1.63661202 40 1.63661202 37.8560821 4.54249669 37.8560821 6.63661202 36.1482644 6.63661202 36.1482644 4.54249669"></polygon>
                <g id="Group-9" transform="translate(41.000000, 0.636612)">
                    <mask id="mask-2" fill="white">
                        <use xlink:href="#path-1"></use>
                    </mask>
                    <g id="Clip-8"></g>
                    <path d="M1.93051765,2.94730588 C1.93051765,3.48977647 2.03110588,3.87977647 2.23263529,4.1166 C2.43451765,4.35377647 2.70875294,4.47201176 3.05569412,4.47201176 C3.41251765,4.47201176 3.68851765,4.35624706 3.88404706,4.12365882 C4.07957647,3.89177647 4.17734118,3.47530588 4.17734118,2.87389412 C4.17734118,2.36812941 4.07534118,1.9986 3.87134118,1.76495294 C3.66734118,1.53165882 3.39063529,1.41518824 3.04087059,1.41518824 C2.70628235,1.41518824 2.43769412,1.53377647 2.2344,1.7706 C2.03181176,2.00777647 1.93051765,2.39989412 1.93051765,2.94730588 M0.269929412,2.93989412 C0.269929412,2.06283529 0.514164706,1.37954118 1.00298824,0.890717647 C1.49181176,0.402247059 2.17263529,0.157658824 3.04475294,0.157658824 C3.93910588,0.157658824 4.6284,0.397658824 5.11228235,0.878011765 C5.59616471,1.35836471 5.83792941,2.03071765 5.83792941,2.89577647 C5.83792941,3.52401176 5.73204706,4.03895294 5.52098824,4.44095294 C5.30957647,4.84295294 5.00392941,5.15565882 4.6044,5.37942353 C4.20487059,5.60283529 3.70687059,5.71471765 3.11075294,5.71471765 C2.50475294,5.71471765 2.00322353,5.61836471 1.60616471,5.42530588 C1.20875294,5.23224706 0.886870588,4.9266 0.640164706,4.50871765 C0.393458824,4.09083529 0.269929412,3.56812941 0.269929412,2.93989412" id="Fill-7" fill="#58595B" mask="url(#mask-2)"></path>
                </g>
                <path d="M52.3914742,1.63661202 L54,1.63661202 L54,4.56557553 C54,4.85617935 53.9523679,5.13031561 53.8560757,5.38830721 C53.7597834,5.64629882 53.6093482,5.87200111 53.4040847,6.06541409 C53.1988212,6.25850418 52.98362,6.39411929 52.7581386,6.47258232 C52.4449318,6.58172019 52.0690151,6.63661202 51.6297032,6.63661202 C51.3761223,6.63661202 51.0992393,6.61982158 50.7990542,6.58656359 C50.4988692,6.5529827 50.2476869,6.48646672 50.0461929,6.38701564 C49.8443561,6.28756456 49.6599959,6.14613737 49.4927695,5.96305697 C49.3255431,5.77997657 49.211089,5.59108409 49.1494072,5.39670243 C49.0496882,5.083819 49,4.8067767 49,4.56557553 L49,1.63661202 L50.6085258,1.63661202 L50.6085258,4.63532045 C50.6085258,4.90332174 50.6873415,5.11287938 50.8449729,5.26367047 C51.002947,5.41446155 51.2219176,5.48969565 51.501542,5.48969565 C51.7794531,5.48969565 51.997053,5.41543023 52.1550271,5.2668994 C52.3126585,5.11836856 52.3914742,4.90784224 52.3914742,4.63532045 L52.3914742,1.63661202 Z" id="Fill-10" fill="#58595B"></path>
                <polygon id="Fill-12" fill="#58595B" points="64 1.63661202 68 1.63661202 68 2.7107615 65.6251719 2.7107615 65.6251719 3.58393896 67.65337 3.58393896 67.65337 4.59339647 65.6251719 4.59339647 65.6251719 6.63661202 64 6.63661202"></polygon>
                <g id="Group-16" transform="translate(70.000000, 0.636612)">
                    <mask id="mask-4" fill="white">
                        <use xlink:href="#path-3"></use>
                    </mask>
                    <g id="Clip-15"></g>
                    <path d="M1.95914118,2.94730588 C1.95914118,3.48977647 2.05972941,3.87977647 2.26125882,4.1166 C2.46314118,4.35377647 2.73737647,4.47201176 3.08431765,4.47201176 C3.44114118,4.47201176 3.71714118,4.35624706 3.91267059,4.12365882 C4.1082,3.89177647 4.20596471,3.47530588 4.20596471,2.87389412 C4.20596471,2.36812941 4.10396471,1.9986 3.89996471,1.76495294 C3.69596471,1.53165882 3.41925882,1.41518824 3.06949412,1.41518824 C2.73490588,1.41518824 2.46631765,1.53377647 2.26302353,1.7706 C2.06043529,2.00777647 1.95914118,2.39989412 1.95914118,2.94730588 M0.298552941,2.93989412 C0.298552941,2.06283529 0.542788235,1.37954118 1.03161176,0.890717647 C1.52043529,0.402247059 2.20125882,0.157658824 3.07337647,0.157658824 C3.96772941,0.157658824 4.65702353,0.397658824 5.14090588,0.878011765 C5.62478824,1.35836471 5.86655294,2.03071765 5.86655294,2.89577647 C5.86655294,3.52401176 5.76067059,4.03895294 5.54961176,4.44095294 C5.3382,4.84295294 5.03255294,5.15565882 4.63302353,5.37942353 C4.23349412,5.60283529 3.73549412,5.71471765 3.13937647,5.71471765 C2.53337647,5.71471765 2.03184706,5.61836471 1.63478824,5.42530588 C1.23737647,5.23224706 0.915494118,4.9266 0.668788235,4.50871765 C0.422082353,4.09083529 0.298552941,3.56812941 0.298552941,2.93989412" id="Fill-14" fill="#58595B" mask="url(#mask-4)"></path>
                </g>
                <path d="M79.5777526,3.66242313 L80.2397676,3.66242313 C80.3115444,3.66242313 80.4500901,3.63976452 80.6560726,3.59411892 C80.7602324,3.57375901 80.845029,3.52154569 80.9107966,3.43715057 C80.9765641,3.35341223 81.0096147,3.25653846 81.0096147,3.14751443 C81.0096147,2.98594868 80.9578687,2.86214729 80.853709,2.77578186 C80.7498832,2.68941644 80.5545837,2.64606953 80.2674768,2.64606953 L79.5777526,2.64606953 L79.5777526,3.66242313 Z M78,6.63661202 L78,1.63661202 L80.6180143,1.63661202 C81.1034253,1.63661202 81.4743273,1.67766023 81.7307204,1.75942826 C81.9874474,1.84119629 82.1944315,1.99323884 82.3516726,2.21457078 C82.5085798,2.43655948 82.5873673,2.70649249 82.5873673,3.02469819 C82.5873673,3.30218407 82.5272752,3.54124883 82.4070909,3.74254923 C82.2865727,3.94384964 82.1213194,4.10705731 81.910663,4.23184386 C81.7767911,4.31164158 81.5928424,4.37764709 81.3591507,4.42986041 C81.546104,4.49126853 81.6826467,4.55267665 81.7681111,4.61408477 C81.8258663,4.65513297 81.9093276,4.74281194 82.0191627,4.87712168 C82.1293316,5.01143141 82.2024437,5.11487289 82.2395006,5.18777451 L83,6.63661202 L81.2252788,6.63661202 L80.385658,5.10863356 C80.2794952,4.91061701 80.1843493,4.78221822 80.1012219,4.7231088 C79.9880483,4.64593817 79.8598518,4.60718867 79.7162983,4.60718867 L79.5777526,4.60718867 L79.5777526,6.63661202 L78,6.63661202 Z" id="Fill-17" fill="#58595B"></path>
                <polygon id="Fill-19" fill="#58595B" points="89 1.63661202 90.8932689 1.63661202 92.0041654 3.32320075 93.1175973 1.63661202 95 1.63661202 92.8560821 4.54249669 92.8560821 6.63661202 91.1482644 6.63661202 91.1482644 4.54249669"></polygon>
                <g id="Group-23" transform="translate(96.000000, 0.636612)">
                    <mask id="mask-6" fill="white">
                        <use xlink:href="#path-5"></use>
                    </mask>
                    <g id="Clip-22"></g>
                    <path d="M1.83194118,2.94730588 C1.83194118,3.48977647 1.93252941,3.87977647 2.13405882,4.1166 C2.33594118,4.35377647 2.61017647,4.47201176 2.95711765,4.47201176 C3.31394118,4.47201176 3.58994118,4.35624706 3.78547059,4.12365882 C3.981,3.89177647 4.07876471,3.47530588 4.07876471,2.87389412 C4.07876471,2.36812941 3.97676471,1.9986 3.77276471,1.76495294 C3.56876471,1.53165882 3.29205882,1.41518824 2.94229412,1.41518824 C2.60770588,1.41518824 2.33911765,1.53377647 2.13582353,1.7706 C1.93323529,2.00777647 1.83194118,2.39989412 1.83194118,2.94730588 M0.171352941,2.93989412 C0.171352941,2.06283529 0.415588235,1.37954118 0.904411765,0.890717647 C1.39323529,0.402247059 2.07405882,0.157658824 2.94617647,0.157658824 C3.84052941,0.157658824 4.52982353,0.397658824 5.01370588,0.878011765 C5.49758824,1.35836471 5.73935294,2.03071765 5.73935294,2.89577647 C5.73935294,3.52401176 5.63347059,4.03895294 5.42241176,4.44095294 C5.211,4.84295294 4.90535294,5.15565882 4.50582353,5.37942353 C4.10629412,5.60283529 3.60829412,5.71471765 3.01217647,5.71471765 C2.40617647,5.71471765 1.90464706,5.61836471 1.50758824,5.42530588 C1.11017647,5.23224706 0.788294118,4.9266 0.541588235,4.50871765 C0.294882353,4.09083529 0.171352941,3.56812941 0.171352941,2.93989412" id="Fill-21" fill="#58595B" mask="url(#mask-6)"></path>
                </g>
                <path d="M106.391474,1.63661202 L108,1.63661202 L108,4.56557553 C108,4.85617935 107.952368,5.13031561 107.856076,5.38830721 C107.759783,5.64629882 107.609348,5.87200111 107.404085,6.06541409 C107.198821,6.25850418 106.98362,6.39411929 106.758139,6.47258232 C106.444932,6.58172019 106.069015,6.63661202 105.629703,6.63661202 C105.376122,6.63661202 105.099239,6.61982158 104.799054,6.58656359 C104.498869,6.5529827 104.247687,6.48646672 104.046193,6.38701564 C103.844356,6.28756456 103.659996,6.14613737 103.49277,5.96305697 C103.325543,5.77997657 103.211089,5.59108409 103.149407,5.39670243 C103.049688,5.083819 103,4.8067767 103,4.56557553 L103,1.63661202 L104.608526,1.63661202 L104.608526,4.63532045 C104.608526,4.90332174 104.687342,5.11287938 104.844973,5.26367047 C105.002947,5.41446155 105.221918,5.48969565 105.501542,5.48969565 C105.779453,5.48969565 105.997053,5.41543023 106.155027,5.2668994 C106.312658,5.11836856 106.391474,4.90784224 106.391474,4.63532045 L106.391474,1.63661202 Z" id="Fill-24" fill="#58595B"></path>
                <path d="M90.2313672,24.9767154 C90.9470531,24.9767154 91.5120506,24.7868773 91.9263599,24.4068462 C92.340335,24.0268151 92.5481579,23.4271395 92.5481579,22.606755 C92.5481579,21.7867252 92.340335,21.1866948 91.9263599,20.8066637 C91.5120506,20.4273423 90.9470531,20.2367945 90.2313672,20.2367945 L86.672317,20.2367945 L86.672317,24.9767154 L90.2313672,24.9767154 Z M83,16.636612 L90.2033011,16.636612 C92.1241591,16.636612 93.6073195,17.1816426 94.6521139,18.2717038 C95.6972424,19.3617649 96.2201408,20.8066637 96.2201408,22.606755 C96.2201408,24.0069442 95.8993852,25.2013276 95.2598788,26.1916794 C94.619036,27.1816764 93.705885,27.8668678 92.5200918,28.2465441 L98,37.636612 L93.9036842,37.636612 L88.593175,28.5768979 L86.672317,28.5768979 L86.672317,37.636612 L83,37.636612 L83,16.636612 Z" id="Fill-26" fill="#58595B"></path>
                <g id="Group-30" transform="translate(119.000000, 16.636612)">
                    <mask id="mask-8" fill="white">
                        <use xlink:href="#path-7"></use>
                    </mask>
                    <g id="Clip-29"></g>
                    <path d="M7.88578571,9.19073607 C8.77114286,9.19073607 9.45578571,8.96799836 9.93828571,8.5211459 C10.4225714,8.07498197 10.6636429,7.39609672 10.6636429,6.48380164 C10.6636429,5.57219508 10.4225714,4.89330984 9.93828571,4.44645738 C9.45578571,4.00029344 8.77114286,3.77686721 7.88578571,3.77686721 L3.99042857,3.77686721 L3.99042857,9.19073607 L7.88578571,9.19073607 Z M0.0650714286,0.28432623 L8.03685714,0.28432623 C10.1907857,0.28432623 11.8311429,0.851670492 12.9582857,1.98704754 C14.0854286,3.12208033 14.6493571,4.62134262 14.6493571,6.48380164 C14.6493571,8.34660492 14.0854286,9.84552295 12.9582857,10.9809 C11.8311429,12.1159328 10.1907857,12.683277 8.03685714,12.683277 L3.99042857,12.683277 L3.99042857,20.6584574 L0.0650714286,20.6584574 L0.0650714286,0.28432623 Z" id="Fill-28" fill="#58595B" mask="url(#mask-8)"></path>
                </g>
                <path d="M2.02574096,34.5898681 C0.675020393,33.225489 0,31.1987424 0,28.5092773 L0,15.636612 L3.73538475,15.636612 L3.73538475,28.5685677 C3.73538475,31.5748325 4.98991661,33.0770878 7.49966011,33.0770878 C10.0094036,33.0770878 11.2646152,31.5748325 11.2646152,28.5685677 L11.2646152,15.636612 L15,15.636612 L15,28.5092773 C15,31.1987424 14.3249796,33.225489 12.974259,34.5898681 C11.6231986,35.9542471 9.79867217,36.636612 7.49966011,36.636612 C5.20098795,36.636612 3.37646152,35.9542471 2.02574096,34.5898681" id="Fill-31" fill="#58595B"></path>
                <polygon id="Fill-33" fill="#58595B" points="19 15.636612 22.921832 15.636612 30.2786104 29.4965694 30.2786104 15.636612 34 15.636612 34 36.636612 30.078168 36.636612 22.721051 22.7766546 22.721051 36.636612 19 36.636612"></polygon>
                <path d="M109.937334,16.636612 L106.063371,16.636612 L99,37.636612 L103.172529,37.636612 C103.172529,37.636612 107.932673,22.0205632 108.000352,21.7966607 L112.828176,37.636612 L117,37.636612 L109.937334,16.636612 Z" id="Fill-35" fill="#58595B"></path>
                <path d="M61.622274,26.4779913 C64.0143347,32.3128105 65.2673364,37.636612 65.2673364,37.636612 C65.2673364,37.636612 66.6092869,33.1874951 67,27.1447701 C65.3687822,21.4068391 61,13.636612 61,13.636612 C61.748346,18.1042319 61.842073,22.5281175 61.622274,26.4779913" id="Fill-37" fill="#2EA098"></path>
                <g id="Group-41" transform="translate(50.000000, 16.636612)">
                    <mask id="mask-10" fill="white">
                        <use xlink:href="#path-9"></use>
                    </mask>
                    <g id="Clip-40"></g>
                    <path d="M0.232766667,0.159236111 C0.904433333,4.83215278 0.7561,9.4325 0.3841,13.1328472 C2.77076667,18.3515972 3.7851,25.0002083 3.7851,25.0002083 C3.7851,25.0002083 5.08043333,20.123125 5.70743333,13.1446528 L5.70343333,13.1446528 C4.7741,8.10645833 0.232766667,0.159236111 0.232766667,0.159236111" id="Fill-39" fill="#DB764D" mask="url(#mask-10)"></path>
                </g>
                <path d="M72,16.636612 C72.2200237,18.1537063 71.8846344,25.2648973 72.2701076,27.1221052 C73.0970098,31.105526 72.5364157,28.0522185 72.9222343,30.636612 C73.1975229,30.5977036 75.0658245,28.4322468 75.0658245,28.4322468 L79,29.4649979 C76.1790684,24.9026462 72.1143294,17.0481696 72,16.636612" id="Fill-42" fill="#2EA098"></path>
                <path d="M44.516458,37.636612 C45.0955816,35.5267789 46.3714799,31.9852732 45.8959593,30.1158137 C44.8644941,26.0618518 44.5459585,25.2377622 43.613882,22.636612 C43.3339781,22.6761629 42.0001324,25.4747263 42.0001324,25.4747263 L38,24.4249241 C40.8682249,29.0626019 44.4002118,37.2179186 44.516458,37.636612" id="Fill-44" fill="#D19C05"></path>
                <path d="M48.7142783,16.3215232 L46.8414782,15.9714421 L45.0493733,15.636612 C45.5893584,18.793928 45.7342734,21.9432718 45.6673637,24.8316145 C45.648871,25.5917411 45.6155843,26.3321108 45.5715382,27.0516835 C45.1966419,33.1614659 44,37.636612 44,37.636612 L45.8129512,37.2636543 L47.7250902,36.8702463 L49.5931831,36.4861969 C49.8907465,35.1357849 50.3671841,32.6845237 50.6832401,29.6117818 C50.7679701,28.7809457 50.8382421,27.8988105 50.8927113,26.9868665 C51.0816725,23.8423753 51.0557828,20.2764003 50.5305918,16.6608593 L48.7142783,16.3215232 Z" id="Fill-46" fill="#FAC200"></path>
                <path d="M59.3368365,12.3446652 L57.3030297,11.9733442 L55.4581161,11.636612 C56.3377687,16.502443 56.4628887,21.3519969 56.2448818,25.6569467 C56.1856144,26.8346616 56.101739,27.9733793 55.9984543,29.0585183 C55.3465132,35.8738692 54,40.636612 54,40.636612 L55.8903173,40.2557961 L57.9671016,39.8373393 L59.941641,39.4388899 C60.4597973,37.2859063 61.5474056,32.1552336 61.8936519,25.7932673 C61.896078,25.7447751 61.8998906,25.6986567 61.9019701,25.6501646 C62.1092326,21.6687218 62.0208515,17.209818 61.3151884,12.7061521 L59.3368365,12.3446652 Z" id="Fill-48" fill="#F99C71"></path>
                <path d="M72.5782234,16.9870453 C72.5745251,16.9752602 72.5745251,16.9676346 72.5745251,16.9676346 L70.6836978,16.5118287 L68.7952238,16.0570626 L67.0489654,15.636612 C67.6541377,19.184619 67.7623964,22.7194543 67.6292584,25.8872186 C67.615474,26.2026432 67.6026981,26.5187611 67.5845429,26.82656 C67.2274912,33.0529032 66,37.636612 66,37.636612 L67.8000515,37.161742 L69.7379479,36.6508235 L71.6704649,36.1409448 L71.6704649,36.137132 C71.97137,34.7329725 72.3959993,32.4348789 72.6824475,29.6116553 L72.6861458,29.6116553 C72.8091975,28.4078425 72.9029992,27.10143 72.9561199,25.7347056 C73.0616889,23.0078425 72.9920941,20.0199742 72.5782234,16.9870453" id="Fill-50" fill="#4AC6C1"></path>
            </g>
        </g>
    </g>
</svg>