<?xml version="1.0" encoding="UTF-8"?>
<svg width="54px" height="54px" viewBox="0 0 54 54" version="1.1" xmlns="http://www.w3.org/2000/svg" xmlns:xlink="http://www.w3.org/1999/xlink">
    <!-- Generator: Sketch 55 (78076) - https://sketchapp.com -->
    <title>bill</title>
    <desc>Created with Sketch.</desc>
    <g id="Page-1" stroke="none" stroke-width="1" fill="none" fill-rule="evenodd">
        <g id="Desktop" transform="translate(-1035.000000, -790.000000)" fill="#FAC200" fill-rule="nonzero">
            <g id="bill" transform="translate(1035.000000, 790.000000)">
                <path d="M53.6477676,38.1898755 L48.2701743,29.2272199 C48.1081676,28.9575683 47.8166508,28.7925909 47.5020747,28.7925311 L44.813278,28.7925311 L44.813278,1.00829876 C44.813278,0.622518804 44.5664195,0.28002092 44.2004365,0.158026588 C43.8344535,0.0360322556 43.431468,0.161915458 43.2,0.470539419 L41.1314191,3.22924481 L38.2768133,0.374639004 C37.9268217,0.0247531175 37.3594853,0.0247531175 37.0094938,0.374639004 L34.0580913,3.32604149 L31.1066888,0.374639004 C30.7606269,0.0305322676 30.2028592,0.0265482129 29.851917,0.365676349 L26.8816929,3.24896266 L23.9302905,0.36746888 C23.579175,0.0243135387 23.0173289,0.0275103868 22.6701411,0.374639004 L19.7178423,3.32604149 L16.7664398,0.374639004 C16.4164483,0.0247531175 15.8491119,0.0247531175 15.4991203,0.374639004 L12.6445145,3.22924481 L10.5759336,0.470539419 C10.3444656,0.161915458 9.9414801,0.0360322556 9.57549711,0.158026588 C9.20951411,0.28002092 8.9626556,0.622518804 8.9626556,1.00829876 L8.9626556,28.7925311 L6.27385892,28.7925311 C5.9613991,28.7959999 5.67405148,28.9643862 5.51830705,29.2352863 L5.50575934,29.2272199 L0.128165975,38.1898755 C-0.0381600783,38.4667164 -0.0426802011,38.8116333 0.116334,39.0927377 C0.2753482,39.3738422 0.573302367,39.5476564 0.89626556,39.5477178 L5.37759336,39.5477178 L5.37759336,52.9917012 C5.37759336,53.486695 5.77886512,53.8879668 6.27385892,53.8879668 L47.5020747,53.8879668 C47.9970685,53.8879668 48.3983402,53.486695 48.3983402,52.9917012 L48.3983402,39.5477178 L52.879668,39.5477178 C53.2026312,39.5476564 53.5005854,39.3738422 53.6595996,39.0927377 C53.8186138,38.8116333 53.8140937,38.4667164 53.6477676,38.1898755 Z M10.7551867,3.69709544 L11.8307054,5.13112033 C11.9866125,5.33893048 12.2250189,5.46886707 12.484159,5.48726653 C12.743299,5.50566599 12.9976727,5.41071776 13.1813776,5.22702075 L16.1327801,2.27561826 L19.0841826,5.22702075 C19.4341741,5.57690663 20.0015105,5.57690663 20.3515021,5.22702075 L23.3091784,2.2693444 L26.2525145,5.14546058 C26.6010216,5.48706581 27.1587793,5.48706581 27.5072863,5.14546058 L30.4649627,2.2666556 L33.422639,5.22433195 C33.7726306,5.57421784 34.3399669,5.57421784 34.6899585,5.22433195 L37.6431535,2.27561826 L40.594556,5.22702075 C40.7773285,5.41242599 41.0321812,5.50840522 41.2918506,5.48962656 C41.5513579,5.47063347 41.7898015,5.33980025 41.9452282,5.13112033 L43.0207469,3.69709544 L43.0207469,28.7925311 L10.7551867,28.7925311 L10.7551867,3.69709544 Z M2.47907054,37.7551867 L5.37759336,32.9243154 L5.37759336,37.7551867 L2.47907054,37.7551867 Z M21.5103734,52.0954357 L7.17012448,52.0954357 L7.17012448,30.5850622 L21.5103734,30.5850622 L21.5103734,52.0954357 Z M46.6058091,52.0954357 L23.3029046,52.0954357 L23.3029046,32.9243154 L27.0161328,39.113029 C27.1781395,39.3826806 27.4696562,39.547658 27.7842324,39.5477178 L46.6058091,39.5477178 L46.6058091,52.0954357 Z M28.2915187,37.7551867 L23.989444,30.5850622 L46.9947884,30.5850622 L51.2968631,37.7551867 L28.2915187,37.7551867 Z" id="Shape"></path>
                <polygon id="Path" points="41.2282158 48.5103734 44.813278 48.5103734 44.813278 50.3029046 41.2282158 50.3029046"></polygon>
                <polygon id="Path" points="37.6431535 48.5103734 39.4356846 48.5103734 39.4356846 50.3029046 37.6431535 50.3029046"></polygon>
                <path d="M18.8215768,16.2448133 L17.0290456,16.2448133 C16.5340518,16.2448133 16.1327801,15.8435415 16.1327801,15.3485477 L14.340249,15.3485477 C14.340249,16.8335291 15.5440642,18.0373444 17.0290456,18.0373444 L17.0290456,19.8298755 L18.8215768,19.8298755 L18.8215768,18.0373444 C20.3065582,18.0373444 21.5103734,16.8335291 21.5103734,15.3485477 C21.5103734,13.8635663 20.3065582,12.659751 18.8215768,12.659751 L17.0290456,12.659751 C16.5340518,12.659751 16.1327801,12.2584793 16.1327801,11.7634855 C16.1327801,11.2684917 16.5340518,10.8672199 17.0290456,10.8672199 L18.8215768,10.8672199 C19.3165706,10.8672199 19.7178423,11.2684917 19.7178423,11.7634855 L21.5103734,11.7634855 C21.5103734,10.2785041 20.3065582,9.0746888 18.8215768,9.0746888 L18.8215768,7.28215768 L17.0290456,7.28215768 L17.0290456,9.0746888 C15.5440642,9.0746888 14.340249,10.2785041 14.340249,11.7634855 C14.340249,13.2484669 15.5440642,14.4522822 17.0290456,14.4522822 L18.8215768,14.4522822 C19.3165706,14.4522822 19.7178423,14.8535539 19.7178423,15.3485477 C19.7178423,15.8435415 19.3165706,16.2448133 18.8215768,16.2448133 Z" id="Path"></path>
                <polygon id="Path" points="14.340249 21.6224066 32.2655602 21.6224066 32.2655602 23.4149378 14.340249 23.4149378"></polygon>
                <polygon id="Path" points="34.0580913 21.6224066 39.4356846 21.6224066 39.4356846 23.4149378 34.0580913 23.4149378"></polygon>
                <polygon id="Path" points="14.340249 25.2074689 32.2655602 25.2074689 32.2655602 27 14.340249 27"></polygon>
                <polygon id="Path" points="34.0580913 25.2074689 39.4356846 25.2074689 39.4356846 27 34.0580913 27"></polygon>
                <polygon id="Path" points="28.6804979 16.2448133 39.4356846 16.2448133 39.4356846 18.0373444 28.6804979 18.0373444"></polygon>
                <polygon id="Path" points="28.6804979 12.659751 30.473029 12.659751 30.473029 14.4522822 28.6804979 14.4522822"></polygon>
                <polygon id="Path" points="32.2655602 12.659751 39.4356846 12.659751 39.4356846 14.4522822 32.2655602 14.4522822"></polygon>
            </g>
        </g>
    </g>
</svg>