<?xml version="1.0" encoding="UTF-8"?>
<svg width="62px" height="60px" viewBox="0 0 62 60" version="1.1" xmlns="http://www.w3.org/2000/svg" xmlns:xlink="http://www.w3.org/1999/xlink">
    <!-- Generator: Sketch 55 (78076) - https://sketchapp.com -->
    <title>conversation</title>
    <desc>Created with Sketch.</desc>
    <g id="Page-1" stroke="none" stroke-width="1" fill="none" fill-rule="evenodd">
        <g id="Desktop" transform="translate(-378.000000, -784.000000)" fill="#FAC200" fill-rule="nonzero">
            <g id="conversation" transform="translate(378.000000, 784.000000)">
                <path d="M50.5837763,41.6632597 L50.5549502,40.321189 C51.8681947,39.3543312 52.6450834,37.8222913 52.6483914,36.1919591 L52.6483914,34.127344 C52.6483914,31.276389 50.3371,28.9655703 47.4866176,28.9660428 C47.3188587,28.9660428 47.1515725,28.9740763 46.9852314,28.9901434 C44.3062883,29.317155 42.3002706,31.6038733 42.3253164,34.3026638 L42.3253164,36.1919591 C42.3347675,37.8170931 43.0974795,39.345825 44.3899314,40.3315854 L44.4197027,41.6538085 C42.8971141,42.0970699 41.5644946,43.0317937 40.6292982,44.3119589 C39.1757034,42.6069621 37.2523839,41.3679096 35.0989275,40.749801 L35.0989275,39.0173958 C37.033116,37.6644563 38.1880529,35.4552379 38.1960864,33.0948002 L38.1960864,28.9655703 C38.1960864,24.9748003 34.9604674,21.7391815 30.9696976,21.7391815 C26.9789277,21.7391815 23.7433088,24.9748003 23.7433088,28.9655703 L23.7433088,33.0948002 C23.7513423,35.4552379 24.9062791,37.6644563 26.8404676,39.0173958 L26.8404676,40.749801 C24.6870112,41.3674371 22.7636918,42.6064896 21.310097,44.3110138 C20.3838792,43.0369918 19.0611835,42.1060485 17.5494638,41.6632597 L17.5206376,40.321189 C18.8338821,39.3543312 19.6107709,37.8222913 19.6140787,36.1919591 L19.6140787,34.3026638 C19.6391245,31.6038733 17.6331069,29.317155 14.9541638,28.9901434 C12.116913,28.7132231 9.59249715,30.788707 9.31510435,33.6259578 C9.29903737,33.7922989 9.29100375,33.9595852 9.29100375,34.127344 L9.29100375,36.1919591 C9.30045496,37.8170931 10.063167,39.345825 11.3556188,40.3315854 L11.38539,41.6538085 C8.31705745,42.5649043 6.20754925,45.3789996 6.19384503,48.579649 L6.19384503,58.9031966 C6.19384503,59.473104 6.65600873,59.9352679 7.22638878,59.9352679 L54.7130064,59.9352679 C55.2833864,59.9352679 55.7455501,59.473104 55.7455501,58.9031966 L55.7455501,48.579649 C55.7351539,45.3893959 53.6393499,42.5809714 50.5837763,41.6632597 L50.5837763,41.6632597 Z M8.25846,48.579649 C8.26838374,46.2962387 9.77159745,44.2888035 11.9595506,43.636198 C12.8304788,43.3758174 13.4254319,42.5719927 13.4202338,41.6632597 L13.4202338,40.3315854 C13.4259045,39.675672 13.1248838,39.0552006 12.6069579,38.653052 C11.8182551,38.0812542 11.3527834,37.1659054 11.3556188,36.1919591 L11.3556188,34.127344 C11.3565639,33.254053 11.7256333,32.4214021 12.371623,31.8335374 C13.0176126,31.2428372 13.8852329,30.9564659 14.7561611,31.0467249 C16.3803502,31.2631574 17.582543,32.6647706 17.5494638,34.3026638 L17.5494638,36.1919591 C17.5508815,37.1715761 17.0802116,38.0916506 16.284893,38.6634482 C15.7740556,39.0651244 15.4782329,39.6813427 15.4848488,40.3315854 L15.4848488,41.6632597 C15.4791781,42.56963 16.0712958,43.3720369 16.9393888,43.6338353 C18.262557,44.0170814 19.3754359,44.9168358 20.0270963,46.1298976 C19.9321118,46.3004917 19.8607552,46.4829 19.7742766,46.6572746 C19.6873256,46.8321219 19.5852526,47.0320148 19.5025547,47.2262369 C19.3811066,47.5102455 19.2818691,47.8022877 19.1849943,48.095275 C19.1216712,48.2833539 19.0517323,48.4681248 18.9988056,48.6580941 C18.908074,48.9865233 18.8461686,49.3210958 18.7861535,49.6575585 C18.7563823,49.8215369 18.7129067,49.9826799 18.6911689,50.1476034 C18.6207575,50.6541878 18.5838979,51.1650253 18.5820075,51.6763352 L18.5820075,57.8706529 L8.25846,57.8706529 L8.25846,48.579649 Z M20.6466226,51.6768079 C20.6466226,51.2396898 20.6768664,50.8035168 20.7373541,50.3706518 C20.9188172,49.0786725 21.3720022,47.83962 22.0666656,46.7347745 C23.4210228,44.5869889 25.5919638,43.0833027 28.0790476,42.5715202 C28.5596412,42.4737002 28.9050826,42.0507589 28.9050826,41.559769 L28.9050826,38.4526865 C28.9046101,38.0840896 28.7080251,37.7438464 28.3885743,37.5595479 C26.796992,36.6352204 25.8150122,34.9358943 25.8079238,33.0948002 L25.8079238,28.9655703 C25.8079238,26.1150879 28.1187426,23.8037965 30.9696976,23.8037965 C33.82018,23.8037965 36.1314714,26.1150879 36.1314714,28.9655703 L36.1314714,33.0948002 C36.124383,34.9358943 35.1419305,36.6347478 33.5503482,37.5595479 C33.2313701,37.7438464 33.0347851,38.0840896 33.0343125,38.4526865 L33.0343125,41.559769 C33.0343125,42.0507589 33.3792815,42.4737002 33.8603476,42.5715202 C38.1866352,43.454735 41.2937177,47.2612065 41.2927725,51.6768079 L41.2927728,57.8706529 L20.6466226,57.8706529 L20.6466226,51.6768079 Z M53.6809351,57.8706529 L43.3573876,57.8706529 L43.3573876,51.6768079 C43.3573876,51.1654978 43.3228907,50.6546604 43.2543695,50.148076 C43.2326318,49.9826799 43.1891561,49.8215369 43.1593849,49.6575585 C43.0993698,49.3210958 43.0374644,48.9865233 42.9467328,48.6580941 C42.8942786,48.4681248 42.8238672,48.2847715 42.7619618,48.0966927 C42.664142,47.8037054 42.5649043,47.5102455 42.4429839,47.2252919 C42.3612309,47.0334324 42.2653013,46.8486614 42.1726795,46.6605826 C42.0795852,46.4729762 42.0143718,46.3014369 41.9184421,46.1298976 C42.5682122,44.9187262 43.6782558,44.0199168 44.9981162,43.636198 C45.8671541,43.3739272 46.4602171,42.5710477 46.4545464,41.6632597 L46.4545464,40.3315854 C46.4602171,39.675672 46.1591963,39.0552006 45.6412705,38.653052 C44.8525676,38.0812542 44.387096,37.1659054 44.3899314,36.1919591 L44.3899314,34.3026638 C44.3568521,32.6647706 45.5595175,31.2631574 47.1837066,31.0467249 C48.0541622,30.9550482 48.9227277,31.2414197 49.5682447,31.8335374 C50.2142344,32.4209296 50.5828312,33.2535804 50.5837763,34.127344 L50.5837763,36.1919591 C50.5856667,37.1711036 50.1145242,38.0916506 49.3192056,38.6629757 C48.8083681,39.0651244 48.5125456,39.6813427 48.5191613,40.3315854 L48.5191613,41.6632597 C48.5134906,42.56963 49.1056084,43.3720369 49.9737013,43.6338353 C52.1644899,44.2854955 53.6700662,46.2943485 53.6809351,48.579649 L53.6809351,57.8706529 Z" id="Shape"></path>
                <path d="M17.8519022,22.4692868 C18.2554686,22.8723805 18.9090192,22.8723805 19.3121129,22.4688143 C19.50539,22.2755371 19.6140787,22.0127938 19.6140787,21.7391815 L19.6140787,18.0376183 C25.2063548,16.6808984 28.9050826,13.2609811 28.9050826,9.35149144 C28.9050826,4.14151656 22.557183,0.0604876906 14.4527776,0.0604876906 C6.34789956,0.0604876906 0,4.14151656 0,9.35149144 C0,14.4688445 6.1248512,18.4969468 14.0208577,18.6424952 L17.8519022,22.4692868 Z M2.06461497,9.35149144 C2.06461497,5.43491348 7.7372262,2.12510266 14.4527776,2.12510266 C21.1678563,2.12510266 26.8404676,5.43491348 26.8404676,9.35149144 C26.8404676,12.3895802 23.3614802,15.2036755 18.380697,16.1946341 C17.8996309,16.2929266 17.5541894,16.7163404 17.5546619,17.2073303 L17.5546619,19.2473721 L15.1876085,16.8803187 C14.9929138,16.6851514 14.7282801,16.5764626 14.4527776,16.5778802 C7.7372262,16.5778802 2.06461497,13.2680694 2.06461497,9.35149144 Z" id="Shape"></path>
                <polygon id="Path" points="6.19384503 6.25433272 22.7112376 6.25433272 22.7112376 8.31894769 6.19384503 8.31894769"></polygon>
                <polygon id="Path" points="6.19384503 10.3835627 22.7112376 10.3835627 22.7112376 12.4481778 6.19384503 12.4481778"></polygon>
                <path d="M47.4870901,3.15764641 C39.3822121,3.15764641 33.0343125,7.23820276 33.0343125,12.4481778 C33.0343125,16.3576673 36.7330403,19.7780571 42.3253164,21.1343046 L42.3253164,24.8363402 C42.3253164,25.4062478 42.7874801,25.8684115 43.3578602,25.8684115 C43.6314724,25.8684115 43.8937432,25.7597227 44.0874929,25.565973 L47.9185374,21.7391815 C55.8145439,21.593633 61.9393951,17.5655309 61.9393951,12.4481778 C61.9393951,7.23820276 55.5914956,3.15764641 47.4870901,3.15764641 L47.4870901,3.15764641 Z M47.4870901,19.6745664 C47.2130053,19.6745664 46.9507344,19.7832553 46.7569848,19.9770049 L44.3899314,22.3440584 L44.3899314,20.3044891 C44.3904039,19.8134991 44.0449625,19.3900853 43.5638964,19.2917928 C38.5779149,18.3008343 35.0989275,15.486739 35.0989275,12.4481778 C35.0989275,8.53159979 40.7715389,5.2222615 47.4870901,5.2222615 C54.2021689,5.2222615 59.8747802,8.53159979 59.8747802,12.4481778 C59.8747802,16.3652283 54.2021689,19.6745664 47.4870901,19.6745664 L47.4870901,19.6745664 Z" id="Shape"></path>
                <polygon id="Path" points="39.2281576 9.35149144 55.7455501 9.35149144 55.7455501 11.4161065 39.2281576 11.4161065"></polygon>
                <polygon id="Path" points="39.2281576 13.4807215 55.7455501 13.4807215 55.7455501 15.5453365 39.2281576 15.5453365"></polygon>
            </g>
        </g>
    </g>
</svg>