<?xml version="1.0" encoding="UTF-8"?>
<svg width="60px" height="60px" viewBox="0 0 60 60" version="1.1" xmlns="http://www.w3.org/2000/svg" xmlns:xlink="http://www.w3.org/1999/xlink">
    <!-- Generator: Sketch 55 (78076) - https://sketchapp.com -->
    <title>money</title>
    <desc>Created with Sketch.</desc>
    <g id="Page-1" stroke="none" stroke-width="1" fill="none" fill-rule="evenodd">
        <g id="Desktop" transform="translate(-691.000000, -1020.000000)" fill="#FAC200">
            <g id="money" transform="translate(691.000000, 1020.000000)">
                <path d="M24.7619048,3.17715666 L25.8534444,5.23809524 C29.8457758,2.20971488 34.916129,2.20971488 38.9084604,5.23809524 L40,3.17715666 C35.3560295,-0.424131584 29.4058752,-0.424131584 24.7619048,3.17715666 Z" id="Path"></path>
                <path d="M20.3504692,14.7619048 L19.047619,14.7619048 C19.0457571,16.3967385 19.2845024,18.0156668 19.7498603,19.5238095 L20.952381,18.8416439 C20.5533864,17.5497707 20.3487592,16.1626859 20.3504692,14.7619048 Z" id="Path"></path>
                <path d="M35.5061624,25.2380952 C34.2150063,25.6370622 32.8285856,25.8415145 31.4285714,25.8395596 L31.4285714,27.1428571 C33.0634316,27.1451217 34.6824881,26.9065397 36.1904762,26.4410239 L35.5061624,25.2380952 Z" id="Path"></path>
                <path d="M45.3633695,14.7619048 C45.3651615,16.1624715 45.1606276,17.5494448 44.7619048,18.8412639 L45.9648342,19.5238095 C46.4302688,18.0158214 46.6688509,16.396765 46.6666667,14.7619048 L45.3633695,14.7619048 L45.3633695,14.7619048 Z" id="Path"></path>
                <path d="M32.3809524,5.23809524 C27.1210714,5.23809524 22.8571429,9.50202381 22.8571429,14.7619048 C22.8571429,20.0217857 27.1210714,24.2857143 32.3809524,24.2857143 C37.6384524,24.279881 41.8990476,20.0194048 41.9047619,14.7619048 C41.9047619,9.50214286 37.6408333,5.23809524 32.3809524,5.23809524 Z M32.3809524,22.3809524 C28.1730952,22.3809524 24.7619048,18.9697619 24.7619048,14.7619048 C24.7619048,10.5540476 28.1730952,7.14285714 32.3809524,7.14285714 C36.5888095,7.14285714 40,10.5540476 40,14.7619048 C39.9952381,18.9678571 36.5869048,22.3763095 32.3809524,22.3809524 Z" id="Shape" fill-rule="nonzero"></path>
                <path d="M34.4761905,13.9565873 L33.3333333,13.5438889 L33.3333333,10.8964286 C33.8638095,11.0969742 34.2365476,11.6158135 34.2857143,12.2222222 L36.1904762,12.2222222 C36.1053571,10.4810218 34.9195238,9.0352877 33.3333333,8.73904762 L33.3333333,8.0952381 L31.4285714,8.0952381 L31.4285714,8.73904762 C29.842381,9.0352877 28.6565476,10.4810218 28.5714286,12.2222222 C28.6088095,13.3359921 29.2990476,14.2993849 30.2857143,14.6148413 L31.4285714,15.0275397 L31.4285714,17.6729365 C30.8986905,17.4726488 30.5260714,16.9548413 30.4761905,16.3492063 L28.5714286,16.3492063 C28.6565476,18.0904067 29.842381,19.5361409 31.4285714,19.832381 L31.4285714,20.4761905 L33.3333333,20.4761905 L33.3333333,19.832381 C34.9195238,19.5361409 36.1053571,18.0904067 36.1904762,16.3492063 C36.1530952,15.2354365 35.4628571,14.2721726 34.4761905,13.9565873 Z M31.4285714,12.856746 L30.8857143,12.6586508 C30.6447619,12.5709524 30.4761905,12.3914286 30.4761905,12.2222222 C30.5253571,11.6158135 30.8980952,11.0969742 31.4285714,10.8964286 L31.4285714,12.856746 Z M33.3333333,17.675 L33.3333333,15.7146825 L33.8761905,15.9127778 C34.1171429,16.0004762 34.2857143,16.18 34.2857143,16.3492063 C34.2365476,16.9556151 33.8638095,17.4744544 33.3333333,17.675 Z" id="Shape" fill-rule="nonzero"></path>
                <path d="M58.7594841,40.308267 L55.5187421,37.0973886 L58.7594841,33.8865103 C59.143664,33.5057486 59.143664,32.8885346 58.7594841,32.5077729 L45.9657866,19.8319701 C45.5814836,19.4513304 44.958529,19.4513304 44.574226,19.8319701 L31.9842436,32.3059352 L18.4101306,18.8569084 C18.0258276,18.4762686 17.402873,18.4762686 17.01857,18.8569084 L4.22487255,31.5327112 C3.84069257,31.9134728 3.84069257,32.5306869 4.22487255,32.9114485 L11.4021368,40.0225739 L1.74816707e-15,40.0225739 L1.74816707e-15,41.9726974 L12.7936974,41.9726974 C12.9270471,41.973063 13.0590436,41.946127 13.1814449,41.8937174 L19.8843582,39.0475121 L34.44457,39.0475121 L34.44457,42.9477592 L23.6191337,42.9477592 C23.0756476,42.9477592 22.6350032,43.3842212 22.6350032,43.9228209 C22.6350032,44.3032169 22.8582778,44.6488763 23.206783,44.808177 L36.0004805,50.6585475 C36.3224142,50.8035879 36.698106,50.7664137 36.984611,50.5610413 L54.0287684,38.3747195 L56.6199842,40.9420571 L37.0328334,57.5736855 L31.6683377,57.5736855 L13.1342066,50.808707 C13.0252142,50.7688514 12.9099479,50.7483751 12.7936974,50.7482532 L0,50.7482532 L0,52.6983767 L12.6175381,52.6983767 L31.1516691,59.4633552 C31.2606616,59.5033327 31.3759279,59.5236871 31.4921783,59.523809 L37.3969617,59.523809 C37.6317999,59.5240528 37.858765,59.440685 38.0366466,59.2888191 L58.7033886,41.7377075 C59.1161084,41.3872947 59.1640848,40.771787 58.8104128,40.3628704 C58.7941747,40.3441005 58.7771984,40.3258181 58.7594841,40.308267 Z M19.6826114,37.0973886 C19.5492617,37.097023 19.4172652,37.1238372 19.294864,37.1763686 L19.0557203,37.2738748 C20.0274262,34.7755228 22.8593849,33.5306127 25.3809735,34.4933643 C26.6084303,34.9620034 27.5936681,35.9006222 28.1146422,37.0973886 L19.6826114,37.0973886 L19.6826114,37.0973886 Z M30.2177292,37.0973886 C29.3561229,34.1999926 26.6677242,32.2137918 23.6191337,32.2220798 C20.1365417,32.2427999 17.2099834,34.8198881 16.7804104,38.2440612 L13.7069706,39.5486939 L6.31221349,32.2220798 L17.7143503,20.9250144 L34.03714,37.0973886 L30.2177292,37.0973886 Z M36.3035927,48.6489452 L28.0998802,44.8978827 L35.4287006,44.8978827 C35.9721867,44.8978827 36.4128312,44.4612988 36.4128312,43.9228209 L36.4128312,39.4511877 L41.7566602,44.745773 L36.3035927,48.6489452 Z M36.5053394,36.7853689 C36.8780789,34.7039777 38.7078237,33.1897068 40.8414187,33.1971416 C43.2818165,33.1927538 45.2637325,35.1492152 45.2682841,37.5671246 C45.2722206,39.6827649 43.7485405,41.4984517 41.6484058,41.8810416 L36.5053394,36.7853689 Z M43.2456497,43.4616167 C43.6405321,43.3029254 44.0179462,43.1049879 44.3730943,42.8718262 L43.3726026,43.5873997 L43.2456497,43.4616167 Z M53.4884807,36.3514664 L44.8163221,42.5577345 C47.5791457,40.3762775 48.03406,36.3886406 45.8321909,33.6512766 C43.6304448,30.9139126 39.6057198,30.4631903 36.8428962,32.6447691 C35.9878098,33.3198775 35.3216764,34.2009677 34.9079725,35.2038187 L33.3756812,33.6846725 L45.2698833,21.9000761 L56.6720201,33.1971416 L53.4884807,36.3514664 Z" id="Shape" fill-rule="nonzero"></path>
            </g>
        </g>
    </g>
</svg>