<?xml version="1.0" encoding="UTF-8"?>
<svg width="55px" height="55px" viewBox="0 0 55 55" version="1.1" xmlns="http://www.w3.org/2000/svg" xmlns:xlink="http://www.w3.org/1999/xlink">
    <!-- Generator: Sketch 55 (78076) - https://sketchapp.com -->
    <title>shirt</title>
    <desc>Created with Sketch.</desc>
    <g id="Page-1" stroke="none" stroke-width="1" fill="none" fill-rule="evenodd">
        <g id="Desktop" transform="translate(-1034.000000, -1022.000000)" fill="#FAC200">
            <g id="shirt" transform="translate(1034.000000, 1022.000000)">
                <path d="M1.5,0.916666667 L1.5,39.4166667 C1.5,39.9228923 1.91855254,40.3333333 2.43478261,40.3333333 L8.97826087,40.3333333 L8.97826087,54.0833333 C8.97826087,54.5895589 9.3968134,55 9.91304348,55 L43.5652174,55 C44.0814475,55 44.5,54.5895589 44.5,54.0833333 L44.5,15.5833333 C44.5,15.0771077 44.0814475,14.6666667 43.5652174,14.6666667 L37.0217391,14.6666667 L37.0217391,0.916666667 C37.0217391,0.410441052 36.6031866,0 36.0869565,0 L24.8695652,0 C24.3533351,0 23.9347826,0.410441052 23.9347826,0.916666667 C23.9347826,3.44779462 21.8420198,5.5 19.2608696,5.5 C16.6797193,5.5 14.5869565,3.44779462 14.5869565,0.916666667 C14.5869565,0.410441052 14.168404,0 13.6521739,0 L2.43478261,0 C1.91855254,0 1.5,0.410441052 1.5,0.916666667 Z M42.6304348,53.1666667 L10.8478261,53.1666667 L10.8478261,16.5 L20.2618355,16.5 C20.7242061,19.6590982 23.4842794,22.0049235 26.7391304,22.0049235 C29.9939814,22.0049235 32.7540548,19.6590982 33.2164254,16.5 L42.6304348,16.5 L42.6304348,53.1666667 Z M3.36956522,1.83333333 L12.7835746,1.83333333 C13.2459452,4.99243158 16.0060186,7.33825686 19.2608696,7.33825686 C22.5157206,7.33825686 25.2757939,4.99243158 25.7381645,1.83333333 L35.1521739,1.83333333 L35.1521739,14.6666667 L32.3478261,14.6666667 C31.831596,14.6666667 31.4130435,15.0771077 31.4130435,15.5833333 C31.4130435,18.1144613 29.3202807,20.1666667 26.7391304,20.1666667 C24.1579802,20.1666667 22.0652174,18.1144613 22.0652174,15.5833333 C22.0652174,15.0771077 21.6466649,14.6666667 21.1304348,14.6666667 L9.91304348,14.6666667 C9.3968134,14.6666667 8.97826087,15.0771077 8.97826087,15.5833333 L8.97826087,38.5 L3.36956522,38.5 L3.36956522,1.83333333 Z" id="Shape" fill-rule="nonzero"></path>
                <path d="M5.5,46 L4.5,46 L4.5,45 C4.5,44.4477539 4.05224612,44 3.5,44 C2.94775388,44 2.5,44.4477539 2.5,45 L2.5,46 L1.5,46 C0.947753875,46 0.5,46.4477539 0.5,47 C0.5,47.5522461 0.947753875,48 1.5,48 L2.5,48 L2.5,49 C2.5,49.5522461 2.94775388,50 3.5,50 C4.05224612,50 4.5,49.5522461 4.5,49 L4.5,48 L5.5,48 C6.05224612,48 6.5,47.5522461 6.5,47 C6.5,46.4477539 6.05224612,46 5.5,46 Z" id="Path"></path>
                <path d="M52.5,31 L48.5,31 C47.9477539,31 47.5,31.4477539 47.5,32 L47.5,36 C47.5,36.5522461 47.9477539,37 48.5,37 L52.5,37 C53.0522461,37 53.5,36.5522461 53.5,36 L53.5,32 C53.5,31.4477539 53.0522461,31 52.5,31 Z M51.5,35 L49.5,35 L49.5,33 L51.5,33 L51.5,35 Z" id="Shape" fill-rule="nonzero"></path>
                <path d="M53.5,15 L52.5,15 L52.5,14 C52.5,13.4477539 52.0522461,13 51.5,13 C50.9477539,13 50.5,13.4477539 50.5,14 L50.5,15 L49.5,15 C48.9477539,15 48.5,15.4477539 48.5,16 C48.5,16.5522461 48.9477539,17 49.5,17 L50.5,17 L50.5,18 C50.5,18.5522461 50.9477539,19 51.5,19 C52.0522461,19 52.5,18.5522461 52.5,18 L52.5,17 L53.5,17 C54.0522461,17 54.5,16.5522461 54.5,16 C54.5,15.4477539 54.0522461,15 53.5,15 Z" id="Path"></path>
                <path d="M34.5,45 L34.5,46 L33.5,46 C32.9477539,46 32.5,46.4477539 32.5,47 C32.5,47.5522461 32.9477539,48 33.5,48 L34.5,48 L34.5,49 C34.5,49.5522461 34.9477539,50 35.5,50 C36.0522461,50 36.5,49.5522461 36.5,49 L36.5,48 L37.5,48 C38.0522461,48 38.5,47.5522461 38.5,47 C38.5,46.4477539 38.0522461,46 37.5,46 L36.5,46 L36.5,45 C36.5,44.4477539 36.0522461,44 35.5,44 C34.9477539,44 34.5,44.4477539 34.5,45 Z" id="Path"></path>
                <path d="M41.5,4 C40.9477539,4 40.5,4.44775388 40.5,5 L40.5,9 C40.5,9.55224613 40.9477539,10 41.5,10 L45.5,10 C46.0522461,10 46.5,9.55224613 46.5,9 L46.5,5 C46.5,4.44775388 46.0522461,4 45.5,4 L41.5,4 Z M44.5,8 L42.5,8 L42.5,6 L44.5,6 L44.5,8 Z" id="Shape" fill-rule="nonzero"></path>
                <path d="M21.5,38 L17.5,38 C16.9477539,38 16.5,38.4477539 16.5,39 L16.5,43 C16.5,43.5522461 16.9477539,44 17.5,44 L21.5,44 C22.0522461,44 22.5,43.5522461 22.5,43 L22.5,39 C22.5,38.4477539 22.0522461,38 21.5,38 Z M20.5,42 L18.5,42 L18.5,40 L20.5,40 L20.5,42 Z" id="Shape" fill-rule="nonzero"></path>
            </g>
        </g>
    </g>
</svg>