<?xml version="1.0" encoding="UTF-8"?>
<svg width="49px" height="49px" viewBox="0 0 49 49" version="1.1" xmlns="http://www.w3.org/2000/svg" xmlns:xlink="http://www.w3.org/1999/xlink">
    <!-- Generator: Sketch 55 (78076) - https://sketchapp.com -->
    <title>smartphone</title>
    <desc>Created with Sketch.</desc>
    <g id="Page-1" stroke="none" stroke-width="1" fill="none" fill-rule="evenodd">
        <g id="Desktop" transform="translate(-696.000000, -790.000000)" fill="#FAC200" fill-rule="nonzero">
            <g id="smartphone" transform="translate(696.000000, 790.000000)">
                <path d="M44.6933594,11.5800781 L31.7734375,11.5800781 L31.7734375,4.30664062 C31.7734375,1.93195898 29.8414785,0 27.4667969,0 L4.30664062,0 C1.93195898,0 0,1.93195898 0,4.30664062 L0,44.6933594 C0,47.068041 1.93195898,49 4.30664062,49 L27.4667969,49 C29.8414785,49 31.7734375,47.068041 31.7734375,44.6933594 L31.7734375,36.5789785 L36.6746816,31.6777344 L44.6933594,31.6777344 C47.068041,31.6777344 49,29.7457754 49,27.3710938 L49,15.8867188 C49,13.5120371 47.068041,11.5800781 44.6933594,11.5800781 Z M2.87109375,4.30664062 C2.87109375,3.51508008 3.51508008,2.87109375 4.30664062,2.87109375 L27.4667969,2.87109375 C28.2583574,2.87109375 28.9023438,3.51508008 28.9023438,4.30664062 L28.9023438,5.7421875 L2.87109375,5.7421875 L2.87109375,4.30664062 Z M28.9023438,44.6933594 C28.9023438,45.4849199 28.2583574,46.1289062 27.4667969,46.1289062 L4.30664062,46.1289062 C3.51508008,46.1289062 2.87109375,45.4849199 2.87109375,44.6933594 L2.87109375,43.2578125 L28.9023438,43.2578125 L28.9023438,44.6933594 Z M28.9023438,35.984375 L28.9023438,40.3867188 L2.87109375,40.3867188 L2.87109375,8.61328125 L28.9023438,8.61328125 L28.9023438,11.5800781 L27.4667969,11.5800781 C25.0921152,11.5800781 23.1601562,13.5120371 23.1601562,15.8867188 L23.1601562,27.3710938 C23.1601562,29.7457754 25.0921152,31.6777344 27.4667969,31.6777344 L28.9023438,31.6777344 L28.9023438,35.984375 Z M46.1289062,27.3710937 C46.1289062,28.1626543 45.4849199,28.8066406 44.6933594,28.8066406 L36.0800781,28.8066406 C35.6992754,28.8066406 35.334168,28.9579473 35.0650508,29.2271602 L31.7734375,32.5186777 L31.7734375,30.2425703 L31.7734375,30.2421875 C31.7734375,29.4493828 31.1306953,28.8066406 30.3378906,28.8066406 L27.4667969,28.8066406 C26.6752363,28.8066406 26.03125,28.1626543 26.03125,27.3710937 L26.03125,15.8867188 C26.03125,15.0951582 26.6752363,14.4511719 27.4667969,14.4511719 L44.6933594,14.4511719 C45.4849199,14.4511719 46.1289062,15.0951582 46.1289062,15.8867188 L46.1289062,27.3710937 Z" id="Shape"></path>
                <path d="M41.4017461,17.7427852 C40.8412129,17.1820605 39.9322246,17.1820605 39.3716914,17.7427852 L34.6445312,22.4698496 L32.7884648,20.6138789 C32.2279316,20.05325 31.3189434,20.05325 30.7583145,20.6138789 C30.1976855,21.1745078 30.1976855,22.0834004 30.7583145,22.6440293 L33.6294082,25.515123 C34.1899414,26.075752 35.0990254,26.075752 35.6595586,25.515123 L41.4017461,19.7729355 C41.962375,19.2123066 41.962375,18.3034141 41.4017461,17.7427852 Z" id="Path"></path>
            </g>
        </g>
    </g>
</svg>