<?xml version="1.0" encoding="UTF-8"?>
<svg width="55px" height="45px" viewBox="0 0 55 45" version="1.1" xmlns="http://www.w3.org/2000/svg" xmlns:xlink="http://www.w3.org/1999/xlink">
    <!-- Generator: Sketch 55 (78076) - https://sketchapp.com -->
    <title>chat</title>
    <desc>Created with Sketch.</desc>
    <g id="Page-1" stroke="none" stroke-width="1" fill="none" fill-rule="evenodd">
        <g id="Desktop" transform="translate(-375.000000, -1038.000000)" fill="#FAC200">
            <g id="chat" transform="translate(375.000000, 1038.039545)">
                <path d="M40.4094286,0 L3.5906786,0 C1.88641554,0 0.5,1.39417201 0.5,3.10786199 L0.5,25.320613 C0.5,27.034303 1.88641554,28.4285828 3.5906786,28.4285828 L5.97812625,28.4285828 L5.97812625,36.6978888 C5.97812625,37.224382 6.29350818,37.6992392 6.77740826,37.9008244 C6.93756482,37.9676601 7.10586857,38 7.27267152,38 C7.60970782,38 7.94074093,37.8676221 8.18847976,37.6186051 L17.3273734,28.4286906 L19.1609194,28.4286906 C19.8760496,28.4286906 20.4556791,27.8458182 20.4556791,27.1266872 C20.4556791,26.4074484 19.8758352,25.824576 19.1609194,25.824576 C19.1609194,25.824576 16.728555,25.8263008 16.7031487,25.828888 C16.4017027,25.8494777 16.1058312,25.9743097 15.8753515,26.205971 L8.56764559,33.5545608 C8.56764559,33.5545608 8.5653944,27.0443283 8.5612136,27.0105871 C8.50278969,26.3458948 7.94835211,25.824576 7.27224272,25.824576 L3.5906786,25.824576 C3.31431741,25.824576 3.08962655,25.5985203 3.08962655,25.3207208 L3.08962655,3.10786199 C3.08962655,2.82995467 3.31442461,2.60400674 3.5906786,2.60400674 L40.4094286,2.60400674 C40.6857898,2.60400674 40.9104807,2.83006247 40.9104807,3.10786199 L40.9104807,11.6299581 C40.9104807,12.3490891 41.4903246,12.9319614 42.2052403,12.9319614 C42.9201561,12.9319614 43.5,12.3490891 43.5,11.6299581 L43.5,3.10786199 C43.5,1.39417201 42.1135845,0 40.4094286,0 Z" id="Path"></path>
                <path d="M51.4049504,16 L25.5951569,16 C23.8885318,16 22.5,17.3782074 22.5,19.0723806 L22.5,34.0522474 C22.5,35.746314 23.8884244,37.124628 25.5951569,37.124628 L41.7536132,37.124628 L48.3001315,43.6229724 C48.5482293,43.8692445 48.8798494,44 49.2172667,44 C49.3843114,44 49.552859,43.9679239 49.7132476,43.90196 C50.1976342,43.7026832 50.5136878,43.2334767 50.5136878,42.7127992 L50.5136878,37.1245214 L51.4048431,37.1245214 C53.1114682,37.1245214 54.5,35.746314 54.5,34.0521408 L54.5,19.072274 C54.5001074,17.3782074 53.1116829,16 51.4049504,16 Z M51.9068358,34.0522474 C51.9068358,34.3268658 51.681712,34.550333 51.4050578,34.550333 L49.2175888,34.550333 C48.5352393,34.550333 47.9772072,35.0737812 47.9259987,35.738215 C47.9226707,35.7663482 47.9205236,39.6054653 47.9205236,39.6054653 L43.2125699,34.9320495 C43.2076316,34.9271475 43.2024786,34.9225652 43.1975402,34.9176632 C43.1790751,34.8997602 43.1615762,34.8842017 43.1450435,34.8702417 C42.9168065,34.6716042 42.6186811,34.5502265 42.2914626,34.5502265 L25.5951569,34.5502265 C25.3183953,34.5502265 25.0933789,34.3267593 25.0933789,34.0521408 L25.0933789,19.072274 C25.0933789,18.797549 25.3185027,18.5741884 25.5951569,18.5741884 L51.4050578,18.5741884 C51.681712,18.5741884 51.9068358,18.7976556 51.9068358,19.072274 L51.9068358,34.0522474 L51.9068358,34.0522474 Z" id="Shape" fill-rule="nonzero"></path>
                <path d="M39,25 C38.172007,25 37.5,25.672007 37.5,26.5 C37.5,27.327993 38.172007,28 39,28 C39.8281172,28 40.5,27.327993 40.5,26.5 C40.5,25.672007 39.827993,25 39,25 Z" id="Path"></path>
                <path d="M33.2128839,8 C33.2128839,8 9.78711605,8 9.78711605,8 C9.07631426,8 8.5,8.67151018 8.5,9.5 C8.5,10.3284898 9.07642082,11 9.78711605,11 L33.2128839,11 C33.9236857,11 34.5,10.3284898 34.5,9.5 C34.5,8.67151018 33.9236857,8 33.2128839,8 Z" id="Path"></path>
                <path d="M19.1527733,17 L9.84722674,17 C9.10322919,17 8.5,17.6715102 8.5,18.5 C8.5,19.3284898 9.10334074,20 9.84722674,20 L19.1527733,20 C19.8968823,20 20.5,19.3284898 20.5,18.5 C20.5,17.6715102 19.8967708,17 19.1527733,17 Z" id="Path"></path>
                <path d="M33,25 C32.1721311,25 31.5,25.672007 31.5,26.5 C31.5,27.327993 32.1721311,28 33,28 C33.8281172,28 34.5,27.327993 34.5,26.5 C34.5,25.672007 33.8281172,25 33,25 Z" id="Path"></path>
                <path d="M45,25 C44.172007,25 43.5,25.672007 43.5,26.5 C43.5,27.327993 44.172007,28 45,28 C45.8281172,28 46.5,27.327993 46.5,26.5 C46.5,25.672007 45.827993,25 45,25 Z" id="Path"></path>
            </g>
        </g>
    </g>
</svg>